M48
;Layer_Color=9474304
;FILE_FORMAT=2:4
INCH
;TYPE=PLATED
T1F00S00C0.0100
T2F00S00C0.0500
T4F00S00C0.0787
T5F00S00C0.1969
%
T01
X024016Y-020565
X024902
X026702Y-019402
X017902Y-019002
X015902Y-019102
X004802Y-016002
X004750Y-013200
X004802Y-010802
Y-010002
X005402Y-006402
X004502Y-003502
X010999Y-004003
X012902Y-005002
X013902Y-005302
Y-005702
Y-006102
Y-006502
X014500Y-004900
X016502Y-004302
X016902
X017502Y-005002
X019094Y-004029
X020700Y-004750
X020669Y-005112
X021200Y-005500
X020002Y-006202
X018250Y-007850
X017618Y-007848
X017300Y-008250
X017000Y-008500
X016500Y-007950
X015984Y-007848
X015000Y-011800
X015551Y-013773
X015002Y-018002
X012502Y-012002
X011811Y-011214
Y-010820
X013102Y-010502
X008858Y-009935
X008091Y-008124
X015500Y-002750
X016043Y-002743
X019002Y-011802
X021502Y-012502
X022146Y-009443
X024902Y-010002
X025492Y-011509
X027250Y-011150
X026702Y-010302
X026575Y-008754
X026673Y-007080
Y-006588
Y-006096
Y-004915
Y-003340
X029500Y-003200
X030610Y-002946
X030610Y-004915
X030020Y-006096
X031988Y-005860
X034449Y-006293
Y-006785
Y-007277
Y-008557
X036220Y-008360
Y-007868
X035728Y-009443
X032802Y-010002
X031004Y-010131
X028902Y-010002
X027953Y-009443
X028445Y-008458
X029350Y-011700
X029811Y-011750
X030200
X030118Y-012789
X029626
X028902Y-013502
X027657Y-014265
Y-014659
Y-015250
X026575Y-015840
X026502Y-013302
X023622Y-014265
X024114Y-016037
X021602Y-017502
X027854Y-017710
X029450Y-016650
X031496Y-016431
Y-015939
Y-015446
Y-014954
Y-014462
X033071Y-014659
Y-015151
X033100Y-016000
X033071Y-016628
X033093Y-017098
X033071Y-017710
X031496Y-017021
X035039Y-017120
X036811
Y-016135
Y-015643
Y-015151
Y-014659
X036102Y-014102
X036202Y-012602
X034302Y-012102
X033366Y-011509
X032283Y-011903
X033563Y-004521
X035630Y-004718
X034547Y-002848
X025591Y-006490
X024114Y-005506
X024500Y-008250
X038681Y-008465
Y-008858
X039764Y-009049
X039764Y-009443
X039702Y-010002
X040702
X041240Y-011509
X041250Y-013250
X038802Y-013302
Y-012302
X037303Y-011509
X037400Y-010250
X038386Y-007179
Y-006687
Y-006194
X039764Y-005506
X040002Y-014502
X053602Y-016998
X054602Y-009998
X053602Y-006498
X053000Y-000200
X043000Y-001000
X042323Y-000486
X041300Y-001300
X041339Y-001962
X040150Y-001650
X038878Y-002553
X037402Y-001962
X037502Y-001502
X034941Y-001470
X034941Y-002553
X033465Y-001962
X033600Y-001300
Y-000900
X030002Y-001302
X031102Y-002553
X027067
X025591Y-001765
X026002Y-001302
X023327Y-002651
X022736Y-002454
X017002Y-002502
X013502Y-002002
X011050Y-001000
X010000Y-001400
X007500Y-002500
T02
X037287Y-020579
X038287
Y-019579
X039287
X040287
Y-020579
X039287
X037287Y-019579
X036287
Y-020579
X032898Y-020079
X031898
X030898
X029898
X021402Y-019390
X017902Y-020820
X016902
X015902
X012402Y-019390
Y-013390
X012303Y-008268
X015803Y-009698
X016803
X017803
X021303Y-008268
X021402Y-013390
X021303Y-002268
X012303
T04
X044914Y-019260
X046890Y-020401
X049173
X051149Y-019260
X052291Y-017283
Y-015000
X051149Y-013024
X049173Y-011883
X046890
X046792Y-009673
X049074
X051051Y-008531
X052192Y-006555
Y-004272
X049102Y-004244
X046764
Y-006583
X049102
X043674Y-006555
Y-004272
X044815Y-008531
X044914Y-013024
X043772Y-015000
Y-017283
X046862Y-017311
Y-014972
X049201
Y-017311
X049074Y-001154
X046792
X044815Y-002295
X051051
T05
X057087Y-019685
X001969
X057087Y-001969
X001969
M30
