G04 Layer_Color=8388736*
%FSAX24Y24*%
%MOIN*%
G70*
G01*
G75*
%ADD29R,0.1044X0.0651*%
%ADD30R,0.0493X0.0729*%
%ADD31R,0.0729X0.0493*%
%ADD32R,0.0296X0.0513*%
%ADD33O,0.1460X0.0760*%
%ADD34C,0.0860*%
%ADD35C,0.0760*%
%ADD36C,0.0060*%
%ADD37C,0.1438*%
%ADD38C,0.0260*%
D29*
X025660Y-005487D02*
D03*
X023140D02*
D03*
X025660Y-003913D02*
D03*
X023140D02*
D03*
X027140D02*
D03*
X029660D02*
D03*
X027140Y-005487D02*
D03*
X029660D02*
D03*
X033560D02*
D03*
X031040D02*
D03*
X033560Y-003913D02*
D03*
X031040D02*
D03*
X034940D02*
D03*
X037460D02*
D03*
X034940Y-005487D02*
D03*
X037460D02*
D03*
X041460D02*
D03*
X038940D02*
D03*
X041460Y-003913D02*
D03*
X038940D02*
D03*
X023140Y-007913D02*
D03*
X025660D02*
D03*
X023140Y-009487D02*
D03*
X025660D02*
D03*
X029660D02*
D03*
X027140D02*
D03*
X029660Y-007913D02*
D03*
X027140D02*
D03*
X031040D02*
D03*
X033560D02*
D03*
X031040Y-009487D02*
D03*
X033560D02*
D03*
X034940Y-007913D02*
D03*
X037460D02*
D03*
X034940Y-009487D02*
D03*
X037460D02*
D03*
X038940Y-007913D02*
D03*
X041460D02*
D03*
X038940Y-009487D02*
D03*
X041460D02*
D03*
X025660Y-017187D02*
D03*
X023140D02*
D03*
X025660Y-015613D02*
D03*
X023140D02*
D03*
D30*
X027717Y-001673D02*
D03*
X028780D02*
D03*
X035689D02*
D03*
X036752D02*
D03*
X028780Y-002559D02*
D03*
X027717D02*
D03*
X036752D02*
D03*
X035689D02*
D03*
X008701Y-001378D02*
D03*
X007638D02*
D03*
X029961Y-014272D02*
D03*
X028898D02*
D03*
X035374D02*
D03*
X034311D02*
D03*
X006437Y-003051D02*
D03*
X005374D02*
D03*
X006437Y-013681D02*
D03*
X005374D02*
D03*
X006437Y-012697D02*
D03*
X005374D02*
D03*
X006437Y-009941D02*
D03*
X005374D02*
D03*
X008307D02*
D03*
X007244D02*
D03*
X006437Y-016831D02*
D03*
X005374D02*
D03*
X006437Y-006988D02*
D03*
X005374D02*
D03*
X006437Y-005807D02*
D03*
X005374D02*
D03*
X024941Y-002559D02*
D03*
X023878D02*
D03*
X039626Y-012402D02*
D03*
X040689D02*
D03*
X023878Y-011516D02*
D03*
X024941D02*
D03*
X039606Y-001673D02*
D03*
X040669D02*
D03*
X024941Y-013287D02*
D03*
X023878D02*
D03*
Y-001673D02*
D03*
X024941D02*
D03*
X032815Y-002559D02*
D03*
X031752D02*
D03*
Y-001673D02*
D03*
X032815D02*
D03*
X040669Y-002559D02*
D03*
X039606D02*
D03*
X023878Y-012402D02*
D03*
X024941D02*
D03*
X027815Y-011516D02*
D03*
X028878D02*
D03*
X027815Y-012402D02*
D03*
X028878D02*
D03*
X031752Y-011516D02*
D03*
X032815D02*
D03*
X031752Y-012402D02*
D03*
X032815D02*
D03*
X035689Y-011516D02*
D03*
X036752D02*
D03*
X035689Y-012402D02*
D03*
X036752D02*
D03*
X039626Y-011516D02*
D03*
X040689D02*
D03*
X039669Y-010600D02*
D03*
X040732D02*
D03*
X035668D02*
D03*
X036732D02*
D03*
X031769D02*
D03*
X032831D02*
D03*
X027868D02*
D03*
X028932D02*
D03*
X023869D02*
D03*
X024931D02*
D03*
X039669Y-006600D02*
D03*
X040732D02*
D03*
X035668D02*
D03*
X036732D02*
D03*
X031769D02*
D03*
X032831D02*
D03*
X027868D02*
D03*
X028932D02*
D03*
X023869D02*
D03*
X024931D02*
D03*
X005368Y-017800D02*
D03*
X006431D02*
D03*
Y-010900D02*
D03*
X005368D02*
D03*
X006431Y-004000D02*
D03*
X005368D02*
D03*
D31*
X023031Y-020020D02*
D03*
Y-018957D02*
D03*
X024803D02*
D03*
Y-020020D02*
D03*
X023917D02*
D03*
Y-018957D02*
D03*
X025689D02*
D03*
Y-020020D02*
D03*
X007382Y-016772D02*
D03*
Y-015709D02*
D03*
D32*
X006280Y-000935D02*
D03*
X005531D02*
D03*
X005906Y-001821D02*
D03*
X006280Y-008120D02*
D03*
X005531D02*
D03*
X005906Y-009006D02*
D03*
X006280Y-014813D02*
D03*
X005531D02*
D03*
X005906Y-015699D02*
D03*
D33*
X009350Y-004299D02*
D03*
Y-006299D02*
D03*
Y-008299D02*
D03*
Y-013256D02*
D03*
Y-015256D02*
D03*
Y-017256D02*
D03*
D34*
X012303Y-002268D02*
D03*
X021303D02*
D03*
Y-008268D02*
D03*
X012303D02*
D03*
X016803Y-009698D02*
D03*
X017803D02*
D03*
X015803D02*
D03*
X015902Y-020820D02*
D03*
X017902D02*
D03*
X016902D02*
D03*
X012402Y-019390D02*
D03*
X021402D02*
D03*
Y-013390D02*
D03*
X012402D02*
D03*
D35*
X038287Y-019579D02*
D03*
Y-020579D02*
D03*
X036287Y-019579D02*
D03*
Y-020579D02*
D03*
X040287Y-019579D02*
D03*
Y-020579D02*
D03*
X039287Y-019579D02*
D03*
Y-020579D02*
D03*
X037287Y-019579D02*
D03*
Y-020579D02*
D03*
X032898Y-020079D02*
D03*
X031898D02*
D03*
X030898D02*
D03*
X029898D02*
D03*
D36*
X057087Y-001969D02*
D03*
X001969D02*
D03*
Y-019685D02*
D03*
X057087D02*
D03*
D37*
X052291Y-015000D02*
D03*
X051149Y-013024D02*
D03*
X049173Y-011883D02*
D03*
X046890D02*
D03*
X044914Y-013024D02*
D03*
X043772Y-015000D02*
D03*
Y-017283D02*
D03*
X044914Y-019260D02*
D03*
X046890Y-020401D02*
D03*
X049173D02*
D03*
X051149Y-019260D02*
D03*
X052291Y-017283D02*
D03*
X049201Y-014972D02*
D03*
X046862D02*
D03*
Y-017311D02*
D03*
X049201D02*
D03*
X052192Y-004272D02*
D03*
X051051Y-002295D02*
D03*
X049074Y-001154D02*
D03*
X046792D02*
D03*
X044815Y-002295D02*
D03*
X043674Y-004272D02*
D03*
Y-006555D02*
D03*
X044815Y-008531D02*
D03*
X046792Y-009673D02*
D03*
X049074D02*
D03*
X051051Y-008531D02*
D03*
X052192Y-006555D02*
D03*
X049102Y-004244D02*
D03*
X046764D02*
D03*
Y-006583D02*
D03*
X049102D02*
D03*
D38*
X015000Y-011800D02*
D03*
X026002Y-001302D02*
D03*
X033600Y-000900D02*
D03*
Y-001300D02*
D03*
X030002Y-001302D02*
D03*
X029500Y-003200D02*
D03*
X037502Y-001502D02*
D03*
X034941Y-001470D02*
D03*
X041300Y-001300D02*
D03*
X004802Y-016002D02*
D03*
X004502Y-003502D02*
D03*
X004802Y-010002D02*
D03*
X053602Y-016998D02*
D03*
X054602Y-009998D02*
D03*
X053602Y-006498D02*
D03*
X043000Y-001000D02*
D03*
X039764Y-005506D02*
D03*
X053000Y-000200D02*
D03*
X016902Y-004302D02*
D03*
X015984Y-007848D02*
D03*
X010000Y-001400D02*
D03*
X007500Y-002500D02*
D03*
X031496Y-015939D02*
D03*
Y-015446D02*
D03*
X033563Y-004521D02*
D03*
X034449Y-006293D02*
D03*
Y-007277D02*
D03*
X038386Y-006194D02*
D03*
X039764Y-009049D02*
D03*
X038681Y-008465D02*
D03*
X036220Y-007868D02*
D03*
X034449Y-006785D02*
D03*
Y-008557D02*
D03*
X042323Y-000486D02*
D03*
X035630Y-004718D02*
D03*
X026575Y-008754D02*
D03*
X028445Y-008458D02*
D03*
X029626Y-012789D02*
D03*
X031988Y-005860D02*
D03*
X030118Y-012789D02*
D03*
X031004Y-010131D02*
D03*
X024902Y-020565D02*
D03*
X024016D02*
D03*
X023327Y-002651D02*
D03*
X024114Y-005506D02*
D03*
X025591Y-001765D02*
D03*
X034941Y-002553D02*
D03*
X037402Y-001962D02*
D03*
X033465D02*
D03*
X038878Y-002553D02*
D03*
X041339Y-001962D02*
D03*
X022146Y-009443D02*
D03*
X025492Y-011509D02*
D03*
X033366D02*
D03*
X037303D02*
D03*
X041240D02*
D03*
X035728Y-009443D02*
D03*
X023622Y-014265D02*
D03*
X011811Y-010820D02*
D03*
X026575Y-015840D02*
D03*
X011811Y-011214D02*
D03*
X024114Y-016037D02*
D03*
X031496Y-016431D02*
D03*
X027854Y-017710D02*
D03*
X027657Y-014265D02*
D03*
Y-014659D02*
D03*
Y-015250D02*
D03*
X031496Y-017021D02*
D03*
X033071Y-014659D02*
D03*
Y-015151D02*
D03*
Y-016628D02*
D03*
X033093Y-017098D02*
D03*
X033071Y-017710D02*
D03*
X035039Y-017120D02*
D03*
X036811D02*
D03*
Y-016135D02*
D03*
Y-015643D02*
D03*
Y-015151D02*
D03*
Y-014659D02*
D03*
X032283Y-011903D02*
D03*
X022736Y-002454D02*
D03*
X038386Y-007179D02*
D03*
Y-006687D02*
D03*
X034547Y-002848D02*
D03*
X031496Y-014462D02*
D03*
Y-014954D02*
D03*
X015551Y-013773D02*
D03*
X019094Y-004029D02*
D03*
X017618Y-007848D02*
D03*
X030610Y-002946D02*
D03*
X031102Y-002553D02*
D03*
X027067D02*
D03*
X008091Y-008124D02*
D03*
X016502Y-004302D02*
D03*
X013902Y-005702D02*
D03*
Y-006502D02*
D03*
Y-006102D02*
D03*
X013102Y-010502D02*
D03*
X012902Y-005002D02*
D03*
X020002Y-006202D02*
D03*
X017502Y-005002D02*
D03*
X005402Y-006402D02*
D03*
X004802Y-010802D02*
D03*
X012502Y-012002D02*
D03*
X021502Y-012502D02*
D03*
X024902Y-010002D02*
D03*
X013902Y-005302D02*
D03*
X013502Y-002002D02*
D03*
X017002Y-002502D02*
D03*
X015002Y-018002D02*
D03*
X015902Y-019102D02*
D03*
X017902Y-019002D02*
D03*
X019002Y-011802D02*
D03*
X028902Y-010002D02*
D03*
X032802D02*
D03*
X028902Y-013502D02*
D03*
X026702Y-019402D02*
D03*
X021602Y-017502D02*
D03*
X026702Y-010302D02*
D03*
X026502Y-013302D02*
D03*
X036102Y-014102D02*
D03*
X036202Y-012602D02*
D03*
X036220Y-008360D02*
D03*
X039702Y-010002D02*
D03*
X040702D02*
D03*
X033100Y-016000D02*
D03*
X038802Y-012302D02*
D03*
Y-013302D02*
D03*
X040002Y-014502D02*
D03*
X034302Y-012102D02*
D03*
X038681Y-008858D02*
D03*
X039764Y-009443D02*
D03*
X030610Y-004915D02*
D03*
X030020Y-006096D02*
D03*
X026673Y-007080D02*
D03*
X025591Y-006490D02*
D03*
X026673Y-006588D02*
D03*
Y-004915D02*
D03*
Y-003340D02*
D03*
X014500Y-004900D02*
D03*
X021200Y-005500D02*
D03*
X020669Y-005112D02*
D03*
X020700Y-004750D02*
D03*
X010999Y-004003D02*
D03*
X004750Y-013200D02*
D03*
X041250Y-013250D02*
D03*
X011050Y-001000D02*
D03*
X008858Y-009935D02*
D03*
X026673Y-006096D02*
D03*
X030200Y-011750D02*
D03*
X029811D02*
D03*
X029350Y-011700D02*
D03*
X037400Y-010250D02*
D03*
X024500Y-008250D02*
D03*
X027953Y-009443D02*
D03*
X027250Y-011150D02*
D03*
X040150Y-001650D02*
D03*
X029450Y-016650D02*
D03*
X016043Y-002743D02*
D03*
X015500Y-002750D02*
D03*
X018250Y-007850D02*
D03*
X016500Y-007950D02*
D03*
X017000Y-008500D02*
D03*
X017300Y-008250D02*
D03*
M02*
