G04 Layer_Color=32768*
%FSAX24Y24*%
%MOIN*%
G70*
G01*
G75*
%ADD43C,0.0039*%
D43*
X015965Y-011713D02*
X016713D01*
X015965Y-013287D02*
X016713D01*
X015965D02*
Y-011713D01*
X016713Y-013287D02*
Y-011713D01*
X054134Y-015846D02*
Y-015453D01*
X053937Y-015650D02*
X054331D01*
X053346Y-015276D02*
X054921D01*
X053346Y-016024D02*
X054921D01*
Y-015276D01*
X053346Y-016024D02*
Y-015276D01*
X054134Y-014961D02*
Y-014567D01*
X053937Y-014764D02*
X054331D01*
X053346Y-014390D02*
X054921D01*
X053346Y-015138D02*
X054921D01*
Y-014390D01*
X053346Y-015138D02*
Y-014390D01*
X054134Y-014075D02*
Y-013681D01*
X053937Y-013878D02*
X054331D01*
X053346Y-013504D02*
X054921D01*
X053346Y-014252D02*
X054921D01*
Y-013504D01*
X053346Y-014252D02*
Y-013504D01*
X054134Y-013189D02*
Y-012795D01*
X053937Y-012992D02*
X054331D01*
X053346Y-012618D02*
X054921D01*
X053346Y-013366D02*
X054921D01*
Y-012618D01*
X053346Y-013366D02*
Y-012618D01*
X054134Y-012303D02*
Y-011909D01*
X053937Y-012106D02*
X054331D01*
X053346Y-011732D02*
X054921D01*
X053346Y-012480D02*
X054921D01*
Y-011732D01*
X053346Y-012480D02*
Y-011732D01*
X054134Y-011417D02*
Y-011024D01*
X053937Y-011220D02*
X054331D01*
X053346Y-010846D02*
X054921D01*
X053346Y-011594D02*
X054921D01*
Y-010846D01*
X053346Y-011594D02*
Y-010846D01*
X054134Y-005610D02*
Y-005217D01*
X053937Y-005413D02*
X054331D01*
X053346Y-005039D02*
X054921D01*
X053346Y-005787D02*
X054921D01*
Y-005039D01*
X053346Y-005787D02*
Y-005039D01*
X054134Y-004724D02*
Y-004331D01*
X053937Y-004528D02*
X054331D01*
X053346Y-004154D02*
X054921D01*
X053346Y-004902D02*
X054921D01*
Y-004154D01*
X053346Y-004902D02*
Y-004154D01*
X054134Y-003839D02*
Y-003445D01*
X053937Y-003642D02*
X054331D01*
X053346Y-003268D02*
X054921D01*
X053346Y-004016D02*
X054921D01*
Y-003268D01*
X053346Y-004016D02*
Y-003268D01*
X054134Y-002953D02*
Y-002559D01*
X053937Y-002756D02*
X054331D01*
X053346Y-002382D02*
X054921D01*
X053346Y-003130D02*
X054921D01*
Y-002382D01*
X053346Y-003130D02*
Y-002382D01*
X054134Y-002067D02*
Y-001673D01*
X053937Y-001870D02*
X054331D01*
X053346Y-001496D02*
X054921D01*
X053346Y-002244D02*
X054921D01*
Y-001496D01*
X053346Y-002244D02*
Y-001496D01*
X054134Y-001181D02*
Y-000787D01*
X053937Y-000984D02*
X054331D01*
X053346Y-000610D02*
X054921D01*
X053346Y-001358D02*
X054921D01*
Y-000610D01*
X053346Y-001358D02*
Y-000610D01*
X028248Y-001870D02*
Y-001476D01*
X028051Y-001673D02*
X028445D01*
X027461Y-001299D02*
X029035D01*
X027461Y-002047D02*
X029035D01*
X027461D02*
Y-001299D01*
X029035Y-002047D02*
Y-001299D01*
X036220Y-001870D02*
Y-001476D01*
X036024Y-001673D02*
X036417D01*
X035433Y-001299D02*
X037008D01*
X035433Y-002047D02*
X037008D01*
X035433D02*
Y-001299D01*
X037008Y-002047D02*
Y-001299D01*
X028248Y-002756D02*
Y-002362D01*
X028051Y-002559D02*
X028445D01*
X027461Y-002933D02*
X029035D01*
X027461Y-002185D02*
X029035D01*
Y-002933D02*
Y-002185D01*
X027461Y-002933D02*
Y-002185D01*
X036220Y-002756D02*
Y-002362D01*
X036024Y-002559D02*
X036417D01*
X035433Y-002933D02*
X037008D01*
X035433Y-002185D02*
X037008D01*
Y-002933D02*
Y-002185D01*
X035433Y-002933D02*
Y-002185D01*
X022657Y-020276D02*
X023406D01*
X022657Y-018701D02*
X023406D01*
X022657Y-020276D02*
Y-018701D01*
X023406Y-020276D02*
Y-018701D01*
X023031Y-019685D02*
Y-019291D01*
X022835Y-019488D02*
X023228D01*
X024429Y-018701D02*
X025177D01*
X024429Y-020276D02*
X025177D01*
Y-018701D01*
X024429Y-020276D02*
Y-018701D01*
X024803Y-019685D02*
Y-019291D01*
X024606Y-019488D02*
X025000D01*
X023543Y-020276D02*
X024291D01*
X023543Y-018701D02*
X024291D01*
X023543Y-020276D02*
Y-018701D01*
X024291Y-020276D02*
Y-018701D01*
X023917Y-019685D02*
Y-019291D01*
X023720Y-019488D02*
X024114D01*
X025315Y-018701D02*
X026063D01*
X025315Y-020276D02*
X026063D01*
Y-018701D01*
X025315Y-020276D02*
Y-018701D01*
X025689Y-019685D02*
Y-019291D01*
X025492Y-019488D02*
X025886D01*
X005217Y-000610D02*
X006594D01*
X005217Y-002146D02*
X006594D01*
Y-000610D01*
X005217Y-002146D02*
Y-000610D01*
X005906Y-001575D02*
Y-001181D01*
X005709Y-001378D02*
X006102D01*
X035433Y-012776D02*
Y-012028D01*
X037008Y-012776D02*
Y-012028D01*
X035433Y-012776D02*
X037008D01*
X035433Y-012028D02*
X037008D01*
X036024Y-012402D02*
X036417D01*
X036220Y-012598D02*
Y-012205D01*
X025177Y-020276D02*
Y-018898D01*
X023642Y-020276D02*
Y-018898D01*
X025177D01*
X023642Y-020276D02*
X025177D01*
X024213Y-019587D02*
X024606D01*
X024409Y-019783D02*
Y-019390D01*
X007008Y-017028D02*
X007756D01*
X007008Y-015453D02*
X007756D01*
X007008Y-017028D02*
Y-015453D01*
X007756Y-017028D02*
Y-015453D01*
X007382Y-016437D02*
Y-016043D01*
X007185Y-016240D02*
X007579D01*
X008957Y-001752D02*
Y-001004D01*
X007382Y-001752D02*
Y-001004D01*
Y-001752D02*
X008957D01*
X007382Y-001004D02*
X008957D01*
X007972Y-001378D02*
X008366D01*
X008169Y-001575D02*
Y-001181D01*
X018898Y-007185D02*
Y-003051D01*
X014764Y-007185D02*
Y-003051D01*
X018898D01*
X014764Y-007185D02*
X018898D01*
X016634Y-005118D02*
X017028D01*
X016831Y-005315D02*
Y-004921D01*
X034843Y-016043D02*
Y-015650D01*
X034646Y-015846D02*
X035039D01*
X033366Y-017913D02*
X036319D01*
X033366Y-013780D02*
X036319D01*
X033366Y-017913D02*
Y-013780D01*
X036319Y-017913D02*
Y-013780D01*
X029528Y-016043D02*
Y-015650D01*
X029331Y-015846D02*
X029724D01*
X028051Y-017913D02*
X031004D01*
X028051Y-013780D02*
X031004D01*
X028051Y-017913D02*
Y-013780D01*
X031004Y-017913D02*
Y-013780D01*
X037697Y-008957D02*
Y-004823D01*
X034744Y-008957D02*
Y-004823D01*
X037697D01*
X034744Y-008957D02*
X037697D01*
X036024Y-006890D02*
X036417D01*
X036220Y-007087D02*
Y-006693D01*
X029823Y-008858D02*
Y-004724D01*
X026870Y-008858D02*
Y-004724D01*
X029823D01*
X026870Y-008858D02*
X029823D01*
X028150Y-006791D02*
X028543D01*
X028346Y-006988D02*
Y-006594D01*
X007283Y-007579D02*
X007677D01*
X007480Y-007776D02*
Y-007382D01*
X007854Y-008366D02*
Y-006791D01*
X007106Y-008366D02*
Y-006791D01*
Y-008366D02*
X007854D01*
X007106Y-006791D02*
X007854D01*
X017224Y-001280D02*
X017618D01*
X017421Y-001476D02*
Y-001083D01*
X017795Y-002067D02*
Y-000492D01*
X017047Y-002067D02*
Y-000492D01*
Y-002067D02*
X017795D01*
X017047Y-000492D02*
X017795D01*
X016339Y-001280D02*
X016732D01*
X016535Y-001476D02*
Y-001083D01*
X016909Y-002067D02*
Y-000492D01*
X016161Y-002067D02*
Y-000492D01*
Y-002067D02*
X016909D01*
X016161Y-000492D02*
X016909D01*
X015453Y-001280D02*
X015846D01*
X015650Y-001476D02*
Y-001083D01*
X015276Y-002067D02*
Y-000492D01*
X016024Y-002067D02*
Y-000492D01*
X015276D02*
X016024D01*
X015276Y-002067D02*
X016024D01*
X017126Y-012500D02*
X017520D01*
X017323Y-012697D02*
Y-012303D01*
X016949Y-013287D02*
Y-011713D01*
X017697Y-013287D02*
Y-011713D01*
X016949D02*
X017697D01*
X016949Y-013287D02*
X017697D01*
X004232Y-006398D02*
X004626D01*
X004429Y-006594D02*
Y-006201D01*
X004055Y-007185D02*
Y-005610D01*
X004803Y-007185D02*
Y-005610D01*
X004055D02*
X004803D01*
X004055Y-007185D02*
X004803D01*
X018110Y-012500D02*
X018504D01*
X018307Y-012697D02*
Y-012303D01*
X018681Y-013287D02*
Y-011713D01*
X017933Y-013287D02*
Y-011713D01*
Y-013287D02*
X018681D01*
X017933Y-011713D02*
X018681D01*
X018110Y-001280D02*
X018504D01*
X018307Y-001476D02*
Y-001083D01*
X018681Y-002067D02*
Y-000492D01*
X017933Y-002067D02*
Y-000492D01*
Y-002067D02*
X018681D01*
X017933Y-000492D02*
X018681D01*
X007283Y-005217D02*
X007677D01*
X007480Y-005413D02*
Y-005020D01*
X007106Y-006004D02*
Y-004429D01*
X007854Y-006004D02*
Y-004429D01*
X007106D02*
X007854D01*
X007106Y-006004D02*
X007854D01*
X029429Y-014468D02*
Y-014075D01*
X029232Y-014272D02*
X029626D01*
X028642Y-014646D02*
X030217D01*
X028642Y-013898D02*
X030217D01*
Y-014646D02*
Y-013898D01*
X028642Y-014646D02*
Y-013898D01*
X034843Y-014468D02*
Y-014075D01*
X034646Y-014272D02*
X035039D01*
X034055Y-014646D02*
X035630D01*
X034055Y-013898D02*
X035630D01*
Y-014646D02*
Y-013898D01*
X034055Y-014646D02*
Y-013898D01*
X028346Y-004035D02*
Y-003642D01*
X028150Y-003839D02*
X028543D01*
X027559Y-004213D02*
X029134D01*
X027559Y-003465D02*
X029134D01*
X027559Y-004213D02*
Y-003465D01*
X029134Y-004213D02*
Y-003465D01*
X036220Y-004134D02*
Y-003740D01*
X036024Y-003937D02*
X036417D01*
X035433Y-004311D02*
X037008D01*
X035433Y-003563D02*
X037008D01*
X035433Y-004311D02*
Y-003563D01*
X037008Y-004311D02*
Y-003563D01*
X005906Y-003248D02*
Y-002854D01*
X005709Y-003051D02*
X006102D01*
X005118Y-003425D02*
X006693D01*
X005118Y-002677D02*
X006693D01*
Y-003425D02*
Y-002677D01*
X005118Y-003425D02*
Y-002677D01*
X005906Y-013878D02*
Y-013484D01*
X005709Y-013681D02*
X006102D01*
X005118Y-014055D02*
X006693D01*
X005118Y-013307D02*
X006693D01*
Y-014055D02*
Y-013307D01*
X005118Y-014055D02*
Y-013307D01*
X005906Y-012894D02*
Y-012500D01*
X005709Y-012697D02*
X006102D01*
X005118Y-013071D02*
X006693D01*
X005118Y-012323D02*
X006693D01*
Y-013071D02*
Y-012323D01*
X005118Y-013071D02*
Y-012323D01*
X005217Y-007795D02*
X006594D01*
X005217Y-009331D02*
X006594D01*
Y-007795D01*
X005217Y-009331D02*
Y-007795D01*
X005906Y-008760D02*
Y-008366D01*
X005709Y-008563D02*
X006102D01*
X005906Y-010138D02*
Y-009744D01*
X005709Y-009941D02*
X006102D01*
X005118Y-010315D02*
X006693D01*
X005118Y-009567D02*
X006693D01*
Y-010315D02*
Y-009567D01*
X005118Y-010315D02*
Y-009567D01*
X008563Y-010315D02*
Y-009567D01*
X006988Y-010315D02*
Y-009567D01*
Y-010315D02*
X008563D01*
X006988Y-009567D02*
X008563D01*
X007579Y-009941D02*
X007972D01*
X007776Y-010138D02*
Y-009744D01*
X005906Y-017028D02*
Y-016634D01*
X005709Y-016831D02*
X006102D01*
X005118Y-017205D02*
X006693D01*
X005118Y-016457D02*
X006693D01*
Y-017205D02*
Y-016457D01*
X005118Y-017205D02*
Y-016457D01*
X005217Y-014488D02*
X006594D01*
X005217Y-016024D02*
X006594D01*
Y-014488D01*
X005217Y-016024D02*
Y-014488D01*
X005906Y-015453D02*
Y-015059D01*
X005709Y-015256D02*
X006102D01*
X005906Y-007185D02*
Y-006791D01*
X005709Y-006988D02*
X006102D01*
X005118Y-007362D02*
X006693D01*
X005118Y-006614D02*
X006693D01*
Y-007362D02*
Y-006614D01*
X005118Y-007362D02*
Y-006614D01*
X005906Y-006004D02*
Y-005610D01*
X005709Y-005807D02*
X006102D01*
X005118Y-006181D02*
X006693D01*
X005118Y-005433D02*
X006693D01*
Y-006181D02*
Y-005433D01*
X005118Y-006181D02*
Y-005433D01*
X024409Y-002756D02*
Y-002362D01*
X024213Y-002559D02*
X024606D01*
X023622Y-002933D02*
X025197D01*
X023622Y-002185D02*
X025197D01*
Y-002933D02*
Y-002185D01*
X023622Y-002933D02*
Y-002185D01*
X040157Y-012598D02*
Y-012205D01*
X039961Y-012402D02*
X040354D01*
X039370Y-012028D02*
X040945D01*
X039370Y-012776D02*
X040945D01*
X039370D02*
Y-012028D01*
X040945Y-012776D02*
Y-012028D01*
X024409Y-011713D02*
Y-011319D01*
X024213Y-011516D02*
X024606D01*
X023622Y-011142D02*
X025197D01*
X023622Y-011890D02*
X025197D01*
X023622D02*
Y-011142D01*
X025197Y-011890D02*
Y-011142D01*
X040138Y-001870D02*
Y-001476D01*
X039941Y-001673D02*
X040335D01*
X039350Y-001299D02*
X040925D01*
X039350Y-002047D02*
X040925D01*
X039350D02*
Y-001299D01*
X040925Y-002047D02*
Y-001299D01*
X024409Y-013484D02*
Y-013091D01*
X024213Y-013287D02*
X024606D01*
X023622Y-013661D02*
X025197D01*
X023622Y-012913D02*
X025197D01*
Y-013661D02*
Y-012913D01*
X023622Y-013661D02*
Y-012913D01*
X024409Y-001870D02*
Y-001476D01*
X024213Y-001673D02*
X024606D01*
X023622Y-001299D02*
X025197D01*
X023622Y-002047D02*
X025197D01*
X023622D02*
Y-001299D01*
X025197Y-002047D02*
Y-001299D01*
X032283Y-002756D02*
Y-002362D01*
X032087Y-002559D02*
X032480D01*
X031496Y-002933D02*
X033071D01*
X031496Y-002185D02*
X033071D01*
Y-002933D02*
Y-002185D01*
X031496Y-002933D02*
Y-002185D01*
X032283Y-001870D02*
Y-001476D01*
X032087Y-001673D02*
X032480D01*
X031496Y-001299D02*
X033071D01*
X031496Y-002047D02*
X033071D01*
X031496D02*
Y-001299D01*
X033071Y-002047D02*
Y-001299D01*
X040138Y-002756D02*
Y-002362D01*
X039941Y-002559D02*
X040335D01*
X039350Y-002933D02*
X040925D01*
X039350Y-002185D02*
X040925D01*
Y-002933D02*
Y-002185D01*
X039350Y-002933D02*
Y-002185D01*
X024409Y-012598D02*
Y-012205D01*
X024213Y-012402D02*
X024606D01*
X023622Y-012028D02*
X025197D01*
X023622Y-012776D02*
X025197D01*
X023622D02*
Y-012028D01*
X025197Y-012776D02*
Y-012028D01*
X028346Y-011713D02*
Y-011319D01*
X028150Y-011516D02*
X028543D01*
X027559Y-011142D02*
X029134D01*
X027559Y-011890D02*
X029134D01*
X027559D02*
Y-011142D01*
X029134Y-011890D02*
Y-011142D01*
X028346Y-012598D02*
Y-012205D01*
X028150Y-012402D02*
X028543D01*
X027559Y-012028D02*
X029134D01*
X027559Y-012776D02*
X029134D01*
X027559D02*
Y-012028D01*
X029134Y-012776D02*
Y-012028D01*
X032283Y-011713D02*
Y-011319D01*
X032087Y-011516D02*
X032480D01*
X031496Y-011142D02*
X033071D01*
X031496Y-011890D02*
X033071D01*
X031496D02*
Y-011142D01*
X033071Y-011890D02*
Y-011142D01*
X032283Y-012598D02*
Y-012205D01*
X032087Y-012402D02*
X032480D01*
X031496Y-012028D02*
X033071D01*
X031496Y-012776D02*
X033071D01*
X031496D02*
Y-012028D01*
X033071Y-012776D02*
Y-012028D01*
X036220Y-011713D02*
Y-011319D01*
X036024Y-011516D02*
X036417D01*
X035433Y-011142D02*
X037008D01*
X035433Y-011890D02*
X037008D01*
X035433D02*
Y-011142D01*
X037008Y-011890D02*
Y-011142D01*
X036220Y-012598D02*
Y-012205D01*
X036024Y-012402D02*
X036417D01*
X035433Y-012028D02*
X037008D01*
X035433Y-012776D02*
X037008D01*
X035433D02*
Y-012028D01*
X037008Y-012776D02*
Y-012028D01*
X040157Y-011713D02*
Y-011319D01*
X039961Y-011516D02*
X040354D01*
X039370Y-011142D02*
X040945D01*
X039370Y-011890D02*
X040945D01*
X039370D02*
Y-011142D01*
X040945Y-011890D02*
Y-011142D01*
X025197Y-001161D02*
Y-000413D01*
X023622Y-001161D02*
Y-000413D01*
X025197D01*
X023622Y-001161D02*
X025197D01*
X024213Y-000787D02*
X024606D01*
X024409Y-000984D02*
Y-000591D01*
X023720Y-001398D02*
X025098D01*
X023720Y-002933D02*
X025098D01*
X023720D02*
Y-001398D01*
X025098Y-002933D02*
Y-001398D01*
X024409Y-002362D02*
Y-001969D01*
X024213Y-002165D02*
X024606D01*
X027559Y-001398D02*
X028937D01*
X027559Y-002933D02*
X028937D01*
X027559D02*
Y-001398D01*
X028937Y-002933D02*
Y-001398D01*
X028248Y-002362D02*
Y-001969D01*
X028051Y-002165D02*
X028445D01*
X029035Y-001161D02*
Y-000413D01*
X027461Y-001161D02*
Y-000413D01*
X029035D01*
X027461Y-001161D02*
X029035D01*
X028051Y-000787D02*
X028445D01*
X028248Y-000984D02*
Y-000591D01*
X031594Y-001398D02*
X032972D01*
X031594Y-002933D02*
X032972D01*
X031594D02*
Y-001398D01*
X032972Y-002933D02*
Y-001398D01*
X032283Y-002362D02*
Y-001969D01*
X032087Y-002165D02*
X032480D01*
X033071Y-001260D02*
Y-000512D01*
X031496Y-001260D02*
Y-000512D01*
X033071D01*
X031496Y-001260D02*
X033071D01*
X032087Y-000886D02*
X032480D01*
X032283Y-001083D02*
Y-000689D01*
X035531Y-001398D02*
X036909D01*
X035531Y-002933D02*
X036909D01*
X035531D02*
Y-001398D01*
X036909Y-002933D02*
Y-001398D01*
X036220Y-002362D02*
Y-001969D01*
X036024Y-002165D02*
X036417D01*
X037008Y-001260D02*
Y-000512D01*
X035433Y-001260D02*
Y-000512D01*
X037008D01*
X035433Y-001260D02*
X037008D01*
X036024Y-000886D02*
X036417D01*
X036220Y-001083D02*
Y-000689D01*
X040925Y-001260D02*
Y-000512D01*
X039350Y-001260D02*
Y-000512D01*
X040925D01*
X039350Y-001260D02*
X040925D01*
X039941Y-000886D02*
X040335D01*
X040138Y-001083D02*
Y-000689D01*
X039449Y-001398D02*
X040827D01*
X039449Y-002933D02*
X040827D01*
X039449D02*
Y-001398D01*
X040827Y-002933D02*
Y-001398D01*
X040138Y-002362D02*
Y-001969D01*
X039941Y-002165D02*
X040335D01*
X027013Y-012774D02*
Y-012026D01*
X028587Y-012774D02*
Y-012026D01*
X027013Y-012774D02*
X028587D01*
X027013Y-012026D02*
X028587D01*
X027603Y-012400D02*
X027997D01*
X027800Y-012597D02*
Y-012203D01*
X027657Y-011890D02*
X029035D01*
X027657Y-010354D02*
X029035D01*
Y-011890D02*
Y-010354D01*
X027657Y-011890D02*
Y-010354D01*
X028346Y-011319D02*
Y-010925D01*
X028150Y-011122D02*
X028543D01*
X031496Y-012776D02*
Y-012028D01*
X033071Y-012776D02*
Y-012028D01*
X031496Y-012776D02*
X033071D01*
X031496Y-012028D02*
X033071D01*
X032087Y-012402D02*
X032480D01*
X032283Y-012598D02*
Y-012205D01*
X031594Y-011890D02*
X032972D01*
X031594Y-010354D02*
X032972D01*
Y-011890D02*
Y-010354D01*
X031594Y-011890D02*
Y-010354D01*
X032283Y-011319D02*
Y-010925D01*
X032087Y-011122D02*
X032480D01*
X023622Y-012776D02*
Y-012028D01*
X025197Y-012776D02*
Y-012028D01*
X023622Y-012776D02*
X025197D01*
X023622Y-012028D02*
X025197D01*
X024213Y-012402D02*
X024606D01*
X024409Y-012598D02*
Y-012205D01*
X023720Y-011890D02*
X025098D01*
X023720Y-010354D02*
X025098D01*
Y-011890D02*
Y-010354D01*
X023720Y-011890D02*
Y-010354D01*
X024409Y-011319D02*
Y-010925D01*
X024213Y-011122D02*
X024606D01*
X035531Y-011890D02*
X036909D01*
X035531Y-010354D02*
X036909D01*
Y-011890D02*
Y-010354D01*
X035531Y-011890D02*
Y-010354D01*
X036220Y-011319D02*
Y-010925D01*
X036024Y-011122D02*
X036417D01*
X039370Y-012776D02*
Y-012028D01*
X040945Y-012776D02*
Y-012028D01*
X039370Y-012776D02*
X040945D01*
X039370Y-012028D02*
X040945D01*
X039961Y-012402D02*
X040354D01*
X040157Y-012598D02*
Y-012205D01*
X039469Y-011890D02*
X040846D01*
X039469Y-010354D02*
X040846D01*
Y-011890D02*
Y-010354D01*
X039469Y-011890D02*
Y-010354D01*
X040157Y-011319D02*
Y-010925D01*
X039961Y-011122D02*
X040354D01*
X039413Y-010974D02*
Y-010226D01*
X040987Y-010974D02*
Y-010226D01*
X039413D02*
X040987D01*
X039413Y-010974D02*
X040987D01*
X035413D02*
Y-010226D01*
X036987Y-010974D02*
Y-010226D01*
X035413D02*
X036987D01*
X035413Y-010974D02*
X036987D01*
X031513D02*
Y-010226D01*
X033087Y-010974D02*
Y-010226D01*
X031513D02*
X033087D01*
X031513Y-010974D02*
X033087D01*
X027613D02*
Y-010226D01*
X029187Y-010974D02*
Y-010226D01*
X027613D02*
X029187D01*
X027613Y-010974D02*
X029187D01*
X023613D02*
Y-010226D01*
X025187Y-010974D02*
Y-010226D01*
X023613D02*
X025187D01*
X023613Y-010974D02*
X025187D01*
X039413Y-006974D02*
Y-006226D01*
X040987Y-006974D02*
Y-006226D01*
X039413D02*
X040987D01*
X039413Y-006974D02*
X040987D01*
X035413D02*
Y-006226D01*
X036987Y-006974D02*
Y-006226D01*
X035413D02*
X036987D01*
X035413Y-006974D02*
X036987D01*
X031513D02*
Y-006226D01*
X033087Y-006974D02*
Y-006226D01*
X031513D02*
X033087D01*
X031513Y-006974D02*
X033087D01*
X027613D02*
Y-006226D01*
X029187Y-006974D02*
Y-006226D01*
X027613D02*
X029187D01*
X027613Y-006974D02*
X029187D01*
X023613D02*
Y-006226D01*
X025187Y-006974D02*
Y-006226D01*
X023613D02*
X025187D01*
X023613Y-006974D02*
X025187D01*
X005113Y-017426D02*
X006687D01*
X005113Y-018174D02*
X006687D01*
X005113D02*
Y-017426D01*
X006687Y-018174D02*
Y-017426D01*
Y-011274D02*
Y-010526D01*
X005113Y-011274D02*
Y-010526D01*
Y-011274D02*
X006687D01*
X005113Y-010526D02*
X006687D01*
Y-004374D02*
Y-003626D01*
X005113Y-004374D02*
Y-003626D01*
Y-004374D02*
X006687D01*
X005113Y-003626D02*
X006687D01*
M02*
