G04 Layer_Color=8421504*
%FSAX24Y24*%
%MOIN*%
G70*
G01*
G75*
%ADD10R,0.0984X0.0591*%
%ADD11R,0.0433X0.0669*%
%ADD12R,0.0669X0.0433*%
%ADD13R,0.0236X0.0453*%
D10*
X025660Y-005487D02*
D03*
X023140D02*
D03*
X025660Y-003913D02*
D03*
X023140D02*
D03*
X027140D02*
D03*
X029660D02*
D03*
X027140Y-005487D02*
D03*
X029660D02*
D03*
X033560D02*
D03*
X031040D02*
D03*
X033560Y-003913D02*
D03*
X031040D02*
D03*
X034940D02*
D03*
X037460D02*
D03*
X034940Y-005487D02*
D03*
X037460D02*
D03*
X041460D02*
D03*
X038940D02*
D03*
X041460Y-003913D02*
D03*
X038940D02*
D03*
X023140Y-007913D02*
D03*
X025660D02*
D03*
X023140Y-009487D02*
D03*
X025660D02*
D03*
X029660D02*
D03*
X027140D02*
D03*
X029660Y-007913D02*
D03*
X027140D02*
D03*
X031040D02*
D03*
X033560D02*
D03*
X031040Y-009487D02*
D03*
X033560D02*
D03*
X034940Y-007913D02*
D03*
X037460D02*
D03*
X034940Y-009487D02*
D03*
X037460D02*
D03*
X038940Y-007913D02*
D03*
X041460D02*
D03*
X038940Y-009487D02*
D03*
X041460D02*
D03*
X025660Y-017187D02*
D03*
X023140D02*
D03*
X025660Y-015613D02*
D03*
X023140D02*
D03*
D11*
X027717Y-001673D02*
D03*
X028780D02*
D03*
X035689D02*
D03*
X036752D02*
D03*
X028780Y-002559D02*
D03*
X027717D02*
D03*
X036752D02*
D03*
X035689D02*
D03*
X008701Y-001378D02*
D03*
X007638D02*
D03*
X029961Y-014272D02*
D03*
X028898D02*
D03*
X035374D02*
D03*
X034311D02*
D03*
X006437Y-003051D02*
D03*
X005374D02*
D03*
X006437Y-013681D02*
D03*
X005374D02*
D03*
X006437Y-012697D02*
D03*
X005374D02*
D03*
X006437Y-009941D02*
D03*
X005374D02*
D03*
X008307D02*
D03*
X007244D02*
D03*
X006437Y-016831D02*
D03*
X005374D02*
D03*
X006437Y-006988D02*
D03*
X005374D02*
D03*
X006437Y-005807D02*
D03*
X005374D02*
D03*
X024941Y-002559D02*
D03*
X023878D02*
D03*
X039626Y-012402D02*
D03*
X040689D02*
D03*
X023878Y-011516D02*
D03*
X024941D02*
D03*
X039606Y-001673D02*
D03*
X040669D02*
D03*
X024941Y-013287D02*
D03*
X023878D02*
D03*
Y-001673D02*
D03*
X024941D02*
D03*
X032815Y-002559D02*
D03*
X031752D02*
D03*
Y-001673D02*
D03*
X032815D02*
D03*
X040669Y-002559D02*
D03*
X039606D02*
D03*
X023878Y-012402D02*
D03*
X024941D02*
D03*
X027815Y-011516D02*
D03*
X028878D02*
D03*
X027815Y-012402D02*
D03*
X028878D02*
D03*
X031752Y-011516D02*
D03*
X032815D02*
D03*
X031752Y-012402D02*
D03*
X032815D02*
D03*
X035689Y-011516D02*
D03*
X036752D02*
D03*
X035689Y-012402D02*
D03*
X036752D02*
D03*
X039626Y-011516D02*
D03*
X040689D02*
D03*
X039669Y-010600D02*
D03*
X040732D02*
D03*
X035668D02*
D03*
X036732D02*
D03*
X031769D02*
D03*
X032831D02*
D03*
X027868D02*
D03*
X028932D02*
D03*
X023869D02*
D03*
X024931D02*
D03*
X039669Y-006600D02*
D03*
X040732D02*
D03*
X035668D02*
D03*
X036732D02*
D03*
X031769D02*
D03*
X032831D02*
D03*
X027868D02*
D03*
X028932D02*
D03*
X023869D02*
D03*
X024931D02*
D03*
X005368Y-017800D02*
D03*
X006431D02*
D03*
Y-010900D02*
D03*
X005368D02*
D03*
X006431Y-004000D02*
D03*
X005368D02*
D03*
D12*
X023031Y-020020D02*
D03*
Y-018957D02*
D03*
X024803D02*
D03*
Y-020020D02*
D03*
X023917D02*
D03*
Y-018957D02*
D03*
X025689D02*
D03*
Y-020020D02*
D03*
X007382Y-016772D02*
D03*
Y-015709D02*
D03*
D13*
X006280Y-000935D02*
D03*
X005531D02*
D03*
X005906Y-001821D02*
D03*
X006280Y-008120D02*
D03*
X005531D02*
D03*
X005906Y-009006D02*
D03*
X006280Y-014813D02*
D03*
X005531D02*
D03*
X005906Y-015699D02*
D03*
M02*
