G04 Layer_Color=128*
%FSAX24Y24*%
%MOIN*%
G70*
G01*
G75*
%ADD10R,0.0984X0.0591*%
%ADD11R,0.0433X0.0669*%
%ADD12R,0.0669X0.0433*%
%ADD13R,0.0236X0.0453*%
%ADD21R,0.0453X0.0236*%
%ADD22O,0.0650X0.0217*%
%ADD23O,0.0217X0.0650*%
%ADD24O,0.0866X0.0236*%
%ADD25R,0.0394X0.1811*%
D10*
X018091Y-015748D02*
D03*
X015571D02*
D03*
X018091Y-017323D02*
D03*
X015571D02*
D03*
D11*
X054665Y-015650D02*
D03*
X053602D02*
D03*
X054665Y-014764D02*
D03*
X053602D02*
D03*
X054665Y-013878D02*
D03*
X053602D02*
D03*
X054665Y-012992D02*
D03*
X053602D02*
D03*
X054665Y-012106D02*
D03*
X053602D02*
D03*
X054665Y-011220D02*
D03*
X053602D02*
D03*
X054665Y-005413D02*
D03*
X053602D02*
D03*
X054665Y-004528D02*
D03*
X053602D02*
D03*
X054665Y-003642D02*
D03*
X053602D02*
D03*
X054665Y-002756D02*
D03*
X053602D02*
D03*
X054665Y-001870D02*
D03*
X053602D02*
D03*
X054665Y-000984D02*
D03*
X053602D02*
D03*
X035689Y-012402D02*
D03*
X036752D02*
D03*
X027815Y-003839D02*
D03*
X028878D02*
D03*
X035689Y-003937D02*
D03*
X036752D02*
D03*
X024941Y-000787D02*
D03*
X023878D02*
D03*
X028780D02*
D03*
X027717D02*
D03*
X032815Y-000886D02*
D03*
X031752D02*
D03*
X036752D02*
D03*
X035689D02*
D03*
X040669D02*
D03*
X039606D02*
D03*
X027269Y-012400D02*
D03*
X028331D02*
D03*
X031752Y-012402D02*
D03*
X032815D02*
D03*
X023878D02*
D03*
X024941D02*
D03*
X039626D02*
D03*
X040689D02*
D03*
D12*
X016339Y-013032D02*
D03*
Y-011968D02*
D03*
X007480Y-008110D02*
D03*
Y-007047D02*
D03*
X017421Y-001811D02*
D03*
Y-000748D02*
D03*
X016535Y-001811D02*
D03*
Y-000748D02*
D03*
X015650D02*
D03*
Y-001811D02*
D03*
X017323Y-011968D02*
D03*
Y-013032D02*
D03*
X004429Y-005866D02*
D03*
Y-006929D02*
D03*
X018307Y-013032D02*
D03*
Y-011968D02*
D03*
Y-001811D02*
D03*
Y-000748D02*
D03*
X007480Y-004685D02*
D03*
Y-005748D02*
D03*
D13*
X024035Y-001722D02*
D03*
X024783D02*
D03*
X024409Y-002608D02*
D03*
X027874Y-001722D02*
D03*
X028622D02*
D03*
X028248Y-002608D02*
D03*
X031909Y-001722D02*
D03*
X032657D02*
D03*
X032283Y-002608D02*
D03*
X035846Y-001722D02*
D03*
X036594D02*
D03*
X036220Y-002608D02*
D03*
X039764Y-001722D02*
D03*
X040512D02*
D03*
X040138Y-002608D02*
D03*
X028720Y-011565D02*
D03*
X027972D02*
D03*
X028346Y-010679D02*
D03*
X032657Y-011565D02*
D03*
X031909D02*
D03*
X032283Y-010679D02*
D03*
X024783Y-011565D02*
D03*
X024035D02*
D03*
X024409Y-010679D02*
D03*
X036594Y-011565D02*
D03*
X035846D02*
D03*
X036220Y-010679D02*
D03*
X040532Y-011565D02*
D03*
X039783D02*
D03*
X040157Y-010679D02*
D03*
D21*
X024852Y-019213D02*
D03*
Y-019961D02*
D03*
X023967Y-019587D02*
D03*
D22*
X018484Y-004016D02*
D03*
Y-004331D02*
D03*
Y-004646D02*
D03*
Y-004961D02*
D03*
Y-005276D02*
D03*
Y-005591D02*
D03*
Y-005906D02*
D03*
Y-006220D02*
D03*
X015177D02*
D03*
Y-005906D02*
D03*
Y-005591D02*
D03*
Y-005276D02*
D03*
Y-004961D02*
D03*
Y-004646D02*
D03*
Y-004331D02*
D03*
Y-004016D02*
D03*
D23*
X017933Y-006772D02*
D03*
X017618D02*
D03*
X017303D02*
D03*
X016988D02*
D03*
X016673D02*
D03*
X016358D02*
D03*
X016043D02*
D03*
X015728D02*
D03*
Y-003465D02*
D03*
X016043D02*
D03*
X016358D02*
D03*
X016673D02*
D03*
X016988D02*
D03*
X017303D02*
D03*
X017618D02*
D03*
X017933D02*
D03*
D24*
X033898Y-017596D02*
D03*
Y-017096D02*
D03*
Y-016596D02*
D03*
Y-016096D02*
D03*
Y-015596D02*
D03*
Y-015096D02*
D03*
Y-014596D02*
D03*
Y-014096D02*
D03*
X035787Y-017596D02*
D03*
Y-017096D02*
D03*
Y-016596D02*
D03*
Y-016096D02*
D03*
Y-015596D02*
D03*
Y-015096D02*
D03*
Y-014596D02*
D03*
Y-014096D02*
D03*
X028583Y-017596D02*
D03*
Y-017096D02*
D03*
Y-016596D02*
D03*
Y-016096D02*
D03*
Y-015596D02*
D03*
Y-015096D02*
D03*
Y-014596D02*
D03*
Y-014096D02*
D03*
X030472Y-017596D02*
D03*
Y-017096D02*
D03*
Y-016596D02*
D03*
Y-016096D02*
D03*
Y-015596D02*
D03*
Y-015096D02*
D03*
Y-014596D02*
D03*
Y-014096D02*
D03*
X037165Y-005140D02*
D03*
Y-005640D02*
D03*
Y-006140D02*
D03*
Y-006640D02*
D03*
Y-007140D02*
D03*
Y-007640D02*
D03*
Y-008140D02*
D03*
Y-008640D02*
D03*
X035276Y-005140D02*
D03*
Y-005640D02*
D03*
Y-006140D02*
D03*
Y-006640D02*
D03*
Y-007140D02*
D03*
Y-007640D02*
D03*
Y-008140D02*
D03*
Y-008640D02*
D03*
X029291Y-005041D02*
D03*
Y-005541D02*
D03*
Y-006041D02*
D03*
Y-006541D02*
D03*
Y-007041D02*
D03*
Y-007541D02*
D03*
Y-008041D02*
D03*
Y-008541D02*
D03*
X027402Y-005041D02*
D03*
Y-005541D02*
D03*
Y-006041D02*
D03*
Y-006541D02*
D03*
Y-007041D02*
D03*
Y-007541D02*
D03*
Y-008041D02*
D03*
Y-008541D02*
D03*
D25*
X005906Y-008091D02*
D03*
Y-004705D02*
D03*
M02*
