G04 Layer_Color=32896*
%FSAX24Y24*%
%MOIN*%
G70*
G01*
G75*
%ADD26C,0.0100*%
%ADD27C,0.0098*%
%ADD28C,0.0079*%
%ADD42C,0.0236*%
G36*
X016639Y-012650D02*
X016039D01*
X016339Y-012350D01*
X016639Y-012650D01*
D02*
G37*
D26*
X015650Y-016811D02*
Y-016260D01*
X018012Y-016811D02*
Y-016260D01*
X034787Y-021329D02*
Y-018829D01*
X041787D01*
Y-021329D02*
Y-018829D01*
X034787Y-021329D02*
X041787D01*
X028445Y-021555D02*
X034350D01*
Y-018602D01*
X028445D02*
X034350D01*
X028445Y-021555D02*
Y-018602D01*
X018200Y-018450D02*
Y-017850D01*
X017900D01*
X017800Y-017950D01*
Y-018150D01*
X017900Y-018250D01*
X018200D01*
X018000D02*
X017800Y-018450D01*
X017200Y-017850D02*
X017600D01*
Y-018450D01*
X017200D01*
X017600Y-018150D02*
X017400D01*
X016601Y-017950D02*
X016700Y-017850D01*
X016900D01*
X017000Y-017950D01*
Y-018050D01*
X016900Y-018150D01*
X016700D01*
X016601Y-018250D01*
Y-018350D01*
X016700Y-018450D01*
X016900D01*
X017000Y-018350D01*
X016001Y-017850D02*
X016401D01*
Y-018450D01*
X016001D01*
X016401Y-018150D02*
X016201D01*
X015801Y-017850D02*
X015401D01*
X015601D01*
Y-018450D01*
X039000Y-017800D02*
X038800D01*
X038900D01*
Y-018400D01*
X039000D01*
X038800D01*
X038100Y-017900D02*
X038200Y-017800D01*
X038400D01*
X038500Y-017900D01*
Y-018000D01*
X038400Y-018100D01*
X038200D01*
X038100Y-018200D01*
Y-018300D01*
X038200Y-018400D01*
X038400D01*
X038500Y-018300D01*
X037900Y-018400D02*
Y-017800D01*
X037600D01*
X037500Y-017900D01*
Y-018100D01*
X037600Y-018200D01*
X037900D01*
X027850Y-019850D02*
X027650D01*
X027750D01*
Y-020450D01*
X027850D01*
X027650D01*
X026950D02*
X027350D01*
X026950Y-020050D01*
Y-019950D01*
X027050Y-019850D01*
X027250D01*
X027350Y-019950D01*
X026350D02*
X026450Y-019850D01*
X026650D01*
X026750Y-019950D01*
Y-020350D01*
X026650Y-020450D01*
X026450D01*
X026350Y-020350D01*
D27*
X024902Y-018878D02*
G03*
X024902Y-018878I-000049J000000D01*
G01*
X018533Y-003691D02*
G03*
X018533Y-003691I-000049J000000D01*
G01*
X035837Y-013762D02*
G03*
X035837Y-013762I-000049J000000D01*
G01*
X030522D02*
G03*
X030522Y-013762I-000049J000000D01*
G01*
X037215Y-004805D02*
G03*
X037215Y-004805I-000049J000000D01*
G01*
X029341Y-004707D02*
G03*
X029341Y-004707I-000049J000000D01*
G01*
X023750Y-001722D02*
G03*
X023750Y-001722I-000049J000000D01*
G01*
X027589D02*
G03*
X027589Y-001722I-000049J000000D01*
G01*
X031624D02*
G03*
X031624Y-001722I-000049J000000D01*
G01*
X035561D02*
G03*
X035561Y-001722I-000049J000000D01*
G01*
X039478D02*
G03*
X039478Y-001722I-000049J000000D01*
G01*
X029104Y-011565D02*
G03*
X029104Y-011565I-000049J000000D01*
G01*
X033041D02*
G03*
X033041Y-011565I-000049J000000D01*
G01*
X025167D02*
G03*
X025167Y-011565I-000049J000000D01*
G01*
X036978D02*
G03*
X036978Y-011565I-000049J000000D01*
G01*
X040915D02*
G03*
X040915Y-011565I-000049J000000D01*
G01*
D28*
X053976Y-015354D02*
X054291D01*
X053976Y-015945D02*
X054291D01*
X053976Y-014469D02*
X054291D01*
X053976Y-015059D02*
X054291D01*
X053976Y-013583D02*
X054291D01*
X053976Y-014173D02*
X054291D01*
X053976Y-012697D02*
X054291D01*
X053976Y-013287D02*
X054291D01*
X053976Y-011811D02*
X054291D01*
X053976Y-012402D02*
X054291D01*
X053976Y-010925D02*
X054291D01*
X053976Y-011516D02*
X054291D01*
X053976Y-005118D02*
X054291D01*
X053976Y-005709D02*
X054291D01*
X053976Y-004232D02*
X054291D01*
X053976Y-004823D02*
X054291D01*
X053976Y-003346D02*
X054291D01*
X053976Y-003937D02*
X054291D01*
X053976Y-002461D02*
X054291D01*
X053976Y-003051D02*
X054291D01*
X053976Y-001575D02*
X054291D01*
X053976Y-002165D02*
X054291D01*
X053976Y-000689D02*
X054291D01*
X053976Y-001280D02*
X054291D01*
X036063Y-012697D02*
X036378D01*
X036063Y-012106D02*
X036378D01*
X024134Y-018996D02*
X024488D01*
X024134Y-019311D02*
Y-018996D01*
Y-020177D02*
X024488D01*
X024134D02*
Y-019862D01*
X017992Y-006280D02*
Y-003957D01*
X015669Y-006280D02*
Y-003957D01*
X017992D01*
X015669Y-006280D02*
X017992D01*
X034488Y-017815D02*
X035197D01*
X034488Y-013878D02*
X035197D01*
X034488Y-017815D02*
Y-013878D01*
X035197Y-017815D02*
Y-013878D01*
X029173Y-017815D02*
X029882D01*
X029173Y-013878D02*
X029882D01*
X029173Y-017815D02*
Y-013878D01*
X029882Y-017815D02*
Y-013878D01*
X036575Y-008858D02*
Y-004921D01*
X035866Y-008858D02*
Y-004921D01*
X036575D01*
X035866Y-008858D02*
X036575D01*
X028701Y-008760D02*
Y-004823D01*
X027992Y-008760D02*
Y-004823D01*
X028701D01*
X027992Y-008760D02*
X028701D01*
X004961Y-009173D02*
Y-003543D01*
Y-009173D02*
X006850D01*
Y-003543D01*
X004961D02*
X006850D01*
X007776Y-007736D02*
Y-007421D01*
X007185Y-007736D02*
Y-007421D01*
X017717Y-001437D02*
Y-001122D01*
X017126Y-001437D02*
Y-001122D01*
X016831Y-001437D02*
Y-001122D01*
X016240Y-001437D02*
Y-001122D01*
X015354Y-001437D02*
Y-001122D01*
X015945Y-001437D02*
Y-001122D01*
X017028Y-012657D02*
Y-012343D01*
X017618Y-012657D02*
Y-012343D01*
X004134Y-006555D02*
Y-006240D01*
X004724Y-006555D02*
Y-006240D01*
X018602Y-012657D02*
Y-012343D01*
X018012Y-012657D02*
Y-012343D01*
X018602Y-001437D02*
Y-001122D01*
X018012Y-001437D02*
Y-001122D01*
X007185Y-005374D02*
Y-005059D01*
X007776Y-005374D02*
Y-005059D01*
X028189Y-004134D02*
X028504D01*
X028189Y-003543D02*
X028504D01*
X036063Y-004232D02*
X036378D01*
X036063Y-003642D02*
X036378D01*
X024252Y-000492D02*
X024567D01*
X024252Y-001083D02*
X024567D01*
X023819Y-002441D02*
Y-002087D01*
Y-002441D02*
X024134D01*
X025000D02*
Y-002087D01*
X024685Y-002441D02*
X025000D01*
X027657D02*
Y-002087D01*
Y-002441D02*
X027972D01*
X028839D02*
Y-002087D01*
X028524Y-002441D02*
X028839D01*
X028091Y-000492D02*
X028406D01*
X028091Y-001083D02*
X028406D01*
X031693Y-002441D02*
Y-002087D01*
Y-002441D02*
X032008D01*
X032874D02*
Y-002087D01*
X032559Y-002441D02*
X032874D01*
X032126Y-000591D02*
X032441D01*
X032126Y-001181D02*
X032441D01*
X035630Y-002441D02*
Y-002087D01*
Y-002441D02*
X035945D01*
X036811D02*
Y-002087D01*
X036496Y-002441D02*
X036811D01*
X036063Y-000591D02*
X036378D01*
X036063Y-001181D02*
X036378D01*
X039980Y-000591D02*
X040295D01*
X039980Y-001181D02*
X040295D01*
X039547Y-002441D02*
Y-002087D01*
Y-002441D02*
X039862D01*
X040728D02*
Y-002087D01*
X040413Y-002441D02*
X040728D01*
X027643Y-012695D02*
X027957D01*
X027643Y-012105D02*
X027957D01*
X028937Y-011201D02*
Y-010846D01*
X028622D02*
X028937D01*
X027756Y-011201D02*
Y-010846D01*
X028071D01*
X032126Y-012697D02*
X032441D01*
X032126Y-012106D02*
X032441D01*
X032874Y-011201D02*
Y-010846D01*
X032559D02*
X032874D01*
X031693Y-011201D02*
Y-010846D01*
X032008D01*
X024252Y-012697D02*
X024567D01*
X024252Y-012106D02*
X024567D01*
X025000Y-011201D02*
Y-010846D01*
X024685D02*
X025000D01*
X023819Y-011201D02*
Y-010846D01*
X024134D01*
X036811Y-011201D02*
Y-010846D01*
X036496D02*
X036811D01*
X035630Y-011201D02*
Y-010846D01*
X035945D01*
X040000Y-012697D02*
X040315D01*
X040000Y-012106D02*
X040315D01*
X040748Y-011201D02*
Y-010846D01*
X040433D02*
X040748D01*
X039567Y-011201D02*
Y-010846D01*
X039882D01*
D42*
X017717Y-004350D02*
G03*
X017717Y-004350I-000118J000000D01*
G01*
M02*
