G04 Layer_Color=16711935*
%FSAX24Y24*%
%MOIN*%
G70*
G01*
G75*
%ADD43C,0.0039*%
D43*
X018051Y-004094D02*
G03*
X018051Y-004094I-000197J000000D01*
G01*
X035453Y-014252D02*
G03*
X035453Y-014252I-000197J000000D01*
G01*
X030138D02*
G03*
X030138Y-014252I-000197J000000D01*
G01*
X036850Y-005276D02*
G03*
X036850Y-005276I-000197J000000D01*
G01*
X028976Y-005177D02*
G03*
X028976Y-005177I-000197J000000D01*
G01*
X015984Y-013169D02*
X016693D01*
X015984Y-011831D02*
X016693D01*
Y-013169D02*
Y-011831D01*
X015984Y-013169D02*
Y-011831D01*
X053465Y-015295D02*
X054803D01*
X053465Y-016004D02*
X054803D01*
Y-015295D01*
X053465Y-016004D02*
Y-015295D01*
Y-014409D02*
X054803D01*
X053465Y-015118D02*
X054803D01*
Y-014409D01*
X053465Y-015118D02*
Y-014409D01*
Y-013524D02*
X054803D01*
X053465Y-014232D02*
X054803D01*
Y-013524D01*
X053465Y-014232D02*
Y-013524D01*
Y-012638D02*
X054803D01*
X053465Y-013346D02*
X054803D01*
Y-012638D01*
X053465Y-013346D02*
Y-012638D01*
Y-011752D02*
X054803D01*
X053465Y-012461D02*
X054803D01*
Y-011752D01*
X053465Y-012461D02*
Y-011752D01*
Y-010866D02*
X054803D01*
X053465Y-011575D02*
X054803D01*
Y-010866D01*
X053465Y-011575D02*
Y-010866D01*
Y-005059D02*
X054803D01*
X053465Y-005768D02*
X054803D01*
Y-005059D01*
X053465Y-005768D02*
Y-005059D01*
Y-004173D02*
X054803D01*
X053465Y-004882D02*
X054803D01*
Y-004173D01*
X053465Y-004882D02*
Y-004173D01*
Y-003287D02*
X054803D01*
X053465Y-003996D02*
X054803D01*
Y-003287D01*
X053465Y-003996D02*
Y-003287D01*
Y-002402D02*
X054803D01*
X053465Y-003110D02*
X054803D01*
Y-002402D01*
X053465Y-003110D02*
Y-002402D01*
Y-001516D02*
X054803D01*
X053465Y-002224D02*
X054803D01*
Y-001516D01*
X053465Y-002224D02*
Y-001516D01*
Y-000630D02*
X054803D01*
X053465Y-001339D02*
X054803D01*
Y-000630D01*
X053465Y-001339D02*
Y-000630D01*
X027579Y-001319D02*
X028917D01*
X027579Y-002028D02*
X028917D01*
X027579D02*
Y-001319D01*
X028917Y-002028D02*
Y-001319D01*
X035551D02*
X036890D01*
X035551Y-002028D02*
X036890D01*
X035551D02*
Y-001319D01*
X036890Y-002028D02*
Y-001319D01*
X027579Y-002913D02*
X028917D01*
X027579Y-002205D02*
X028917D01*
Y-002913D02*
Y-002205D01*
X027579Y-002913D02*
Y-002205D01*
X035551Y-002913D02*
X036890D01*
X035551Y-002205D02*
X036890D01*
Y-002913D02*
Y-002205D01*
X035551Y-002913D02*
Y-002205D01*
X022677Y-020157D02*
X023386D01*
X022677Y-018819D02*
X023386D01*
X022677Y-020157D02*
Y-018819D01*
X023386Y-020157D02*
Y-018819D01*
X024449D02*
X025157D01*
X024449Y-020157D02*
X025157D01*
Y-018819D01*
X024449Y-020157D02*
Y-018819D01*
X023563Y-020157D02*
X024272D01*
X023563Y-018819D02*
X024272D01*
X023563Y-020157D02*
Y-018819D01*
X024272Y-020157D02*
Y-018819D01*
X025335D02*
X026043D01*
X025335Y-020157D02*
X026043D01*
Y-018819D01*
X025335Y-020157D02*
Y-018819D01*
X005315Y-001102D02*
X006496D01*
X005315Y-001654D02*
X006496D01*
Y-001102D01*
X005315Y-001654D02*
Y-001102D01*
X035551Y-012756D02*
Y-012047D01*
X036890Y-012756D02*
Y-012047D01*
X035551Y-012756D02*
X036890D01*
X035551Y-012047D02*
X036890D01*
X024685Y-020177D02*
Y-018996D01*
X024134Y-020177D02*
Y-018996D01*
X024685D01*
X024134Y-020177D02*
X024685D01*
X007028Y-016909D02*
X007736D01*
X007028Y-015571D02*
X007736D01*
X007028Y-016909D02*
Y-015571D01*
X007736Y-016909D02*
Y-015571D01*
X008839Y-001732D02*
Y-001024D01*
X007500Y-001732D02*
Y-001024D01*
Y-001732D02*
X008839D01*
X007500Y-001024D02*
X008839D01*
X018209Y-006496D02*
Y-003740D01*
X015453Y-006496D02*
Y-003740D01*
X018209D01*
X015453Y-006496D02*
X018209D01*
X034075Y-017795D02*
X035610D01*
X034075Y-013898D02*
X035610D01*
X034075Y-017795D02*
Y-013898D01*
X035610Y-017795D02*
Y-013898D01*
X028760Y-017795D02*
X030295D01*
X028760Y-013898D02*
X030295D01*
X028760Y-017795D02*
Y-013898D01*
X030295Y-017795D02*
Y-013898D01*
X037008Y-008858D02*
Y-004921D01*
X035433Y-008858D02*
Y-004921D01*
X037008D01*
X035433Y-008858D02*
X037008D01*
X029134Y-008760D02*
Y-004823D01*
X027559Y-008760D02*
Y-004823D01*
X029134D01*
X027559Y-008760D02*
X029134D01*
X007835Y-008248D02*
Y-006909D01*
X007126Y-008248D02*
Y-006909D01*
Y-008248D02*
X007835D01*
X007126Y-006909D02*
X007835D01*
X017776Y-001949D02*
Y-000610D01*
X017067Y-001949D02*
Y-000610D01*
Y-001949D02*
X017776D01*
X017067Y-000610D02*
X017776D01*
X016890Y-001949D02*
Y-000610D01*
X016181Y-001949D02*
Y-000610D01*
Y-001949D02*
X016890D01*
X016181Y-000610D02*
X016890D01*
X015295Y-001949D02*
Y-000610D01*
X016004Y-001949D02*
Y-000610D01*
X015295D02*
X016004D01*
X015295Y-001949D02*
X016004D01*
X016969Y-013169D02*
Y-011831D01*
X017677Y-013169D02*
Y-011831D01*
X016969D02*
X017677D01*
X016969Y-013169D02*
X017677D01*
X004075Y-007067D02*
Y-005728D01*
X004783Y-007067D02*
Y-005728D01*
X004075D02*
X004783D01*
X004075Y-007067D02*
X004783D01*
X018661Y-013169D02*
Y-011831D01*
X017953Y-013169D02*
Y-011831D01*
Y-013169D02*
X018661D01*
X017953Y-011831D02*
X018661D01*
Y-001949D02*
Y-000610D01*
X017953Y-001949D02*
Y-000610D01*
Y-001949D02*
X018661D01*
X017953Y-000610D02*
X018661D01*
X007126Y-005886D02*
Y-004547D01*
X007835Y-005886D02*
Y-004547D01*
X007126D02*
X007835D01*
X007126Y-005886D02*
X007835D01*
X028760Y-014626D02*
X030098D01*
X028760Y-013917D02*
X030098D01*
Y-014626D02*
Y-013917D01*
X028760Y-014626D02*
Y-013917D01*
X034173Y-014626D02*
X035512D01*
X034173Y-013917D02*
X035512D01*
Y-014626D02*
Y-013917D01*
X034173Y-014626D02*
Y-013917D01*
X027677Y-004193D02*
X029016D01*
X027677Y-003484D02*
X029016D01*
X027677Y-004193D02*
Y-003484D01*
X029016Y-004193D02*
Y-003484D01*
X035551Y-004291D02*
X036890D01*
X035551Y-003583D02*
X036890D01*
X035551Y-004291D02*
Y-003583D01*
X036890Y-004291D02*
Y-003583D01*
X005236Y-003406D02*
X006575D01*
X005236Y-002697D02*
X006575D01*
Y-003406D02*
Y-002697D01*
X005236Y-003406D02*
Y-002697D01*
Y-014035D02*
X006575D01*
X005236Y-013327D02*
X006575D01*
Y-014035D02*
Y-013327D01*
X005236Y-014035D02*
Y-013327D01*
Y-013051D02*
X006575D01*
X005236Y-012343D02*
X006575D01*
Y-013051D02*
Y-012343D01*
X005236Y-013051D02*
Y-012343D01*
X005315Y-008287D02*
X006496D01*
X005315Y-008839D02*
X006496D01*
Y-008287D01*
X005315Y-008839D02*
Y-008287D01*
X005236Y-010295D02*
X006575D01*
X005236Y-009587D02*
X006575D01*
Y-010295D02*
Y-009587D01*
X005236Y-010295D02*
Y-009587D01*
X008445Y-010295D02*
Y-009587D01*
X007106Y-010295D02*
Y-009587D01*
Y-010295D02*
X008445D01*
X007106Y-009587D02*
X008445D01*
X005236Y-017185D02*
X006575D01*
X005236Y-016476D02*
X006575D01*
Y-017185D02*
Y-016476D01*
X005236Y-017185D02*
Y-016476D01*
X005315Y-014980D02*
X006496D01*
X005315Y-015532D02*
X006496D01*
Y-014980D01*
X005315Y-015532D02*
Y-014980D01*
X005236Y-007343D02*
X006575D01*
X005236Y-006634D02*
X006575D01*
Y-007343D02*
Y-006634D01*
X005236Y-007343D02*
Y-006634D01*
Y-006161D02*
X006575D01*
X005236Y-005453D02*
X006575D01*
Y-006161D02*
Y-005453D01*
X005236Y-006161D02*
Y-005453D01*
X023740Y-002913D02*
X025079D01*
X023740Y-002205D02*
X025079D01*
Y-002913D02*
Y-002205D01*
X023740Y-002913D02*
Y-002205D01*
X039488Y-012047D02*
X040827D01*
X039488Y-012756D02*
X040827D01*
X039488D02*
Y-012047D01*
X040827Y-012756D02*
Y-012047D01*
X023740Y-011161D02*
X025079D01*
X023740Y-011870D02*
X025079D01*
X023740D02*
Y-011161D01*
X025079Y-011870D02*
Y-011161D01*
X039469Y-001319D02*
X040807D01*
X039469Y-002028D02*
X040807D01*
X039469D02*
Y-001319D01*
X040807Y-002028D02*
Y-001319D01*
X023740Y-013642D02*
X025079D01*
X023740Y-012933D02*
X025079D01*
Y-013642D02*
Y-012933D01*
X023740Y-013642D02*
Y-012933D01*
Y-001319D02*
X025079D01*
X023740Y-002028D02*
X025079D01*
X023740D02*
Y-001319D01*
X025079Y-002028D02*
Y-001319D01*
X031614Y-002913D02*
X032953D01*
X031614Y-002205D02*
X032953D01*
Y-002913D02*
Y-002205D01*
X031614Y-002913D02*
Y-002205D01*
Y-001319D02*
X032953D01*
X031614Y-002028D02*
X032953D01*
X031614D02*
Y-001319D01*
X032953Y-002028D02*
Y-001319D01*
X039469Y-002913D02*
X040807D01*
X039469Y-002205D02*
X040807D01*
Y-002913D02*
Y-002205D01*
X039469Y-002913D02*
Y-002205D01*
X023740Y-012047D02*
X025079D01*
X023740Y-012756D02*
X025079D01*
X023740D02*
Y-012047D01*
X025079Y-012756D02*
Y-012047D01*
X027677Y-011161D02*
X029016D01*
X027677Y-011870D02*
X029016D01*
X027677D02*
Y-011161D01*
X029016Y-011870D02*
Y-011161D01*
X027677Y-012047D02*
X029016D01*
X027677Y-012756D02*
X029016D01*
X027677D02*
Y-012047D01*
X029016Y-012756D02*
Y-012047D01*
X031614Y-011161D02*
X032953D01*
X031614Y-011870D02*
X032953D01*
X031614D02*
Y-011161D01*
X032953Y-011870D02*
Y-011161D01*
X031614Y-012047D02*
X032953D01*
X031614Y-012756D02*
X032953D01*
X031614D02*
Y-012047D01*
X032953Y-012756D02*
Y-012047D01*
X035551Y-011161D02*
X036890D01*
X035551Y-011870D02*
X036890D01*
X035551D02*
Y-011161D01*
X036890Y-011870D02*
Y-011161D01*
X035551Y-012047D02*
X036890D01*
X035551Y-012756D02*
X036890D01*
X035551D02*
Y-012047D01*
X036890Y-012756D02*
Y-012047D01*
X039488Y-011161D02*
X040827D01*
X039488Y-011870D02*
X040827D01*
X039488D02*
Y-011161D01*
X040827Y-011870D02*
Y-011161D01*
X025079Y-001142D02*
Y-000433D01*
X023740Y-001142D02*
Y-000433D01*
X025079D01*
X023740Y-001142D02*
X025079D01*
X023819Y-001890D02*
X025000D01*
X023819Y-002441D02*
X025000D01*
X023819D02*
Y-001890D01*
X025000Y-002441D02*
Y-001890D01*
X027657D02*
X028839D01*
X027657Y-002441D02*
X028839D01*
X027657D02*
Y-001890D01*
X028839Y-002441D02*
Y-001890D01*
X028917Y-001142D02*
Y-000433D01*
X027579Y-001142D02*
Y-000433D01*
X028917D01*
X027579Y-001142D02*
X028917D01*
X031693Y-001890D02*
X032874D01*
X031693Y-002441D02*
X032874D01*
X031693D02*
Y-001890D01*
X032874Y-002441D02*
Y-001890D01*
X032953Y-001240D02*
Y-000531D01*
X031614Y-001240D02*
Y-000531D01*
X032953D01*
X031614Y-001240D02*
X032953D01*
X035630Y-001890D02*
X036811D01*
X035630Y-002441D02*
X036811D01*
X035630D02*
Y-001890D01*
X036811Y-002441D02*
Y-001890D01*
X036890Y-001240D02*
Y-000531D01*
X035551Y-001240D02*
Y-000531D01*
X036890D01*
X035551Y-001240D02*
X036890D01*
X040807D02*
Y-000531D01*
X039469Y-001240D02*
Y-000531D01*
X040807D01*
X039469Y-001240D02*
X040807D01*
X039547Y-001890D02*
X040728D01*
X039547Y-002441D02*
X040728D01*
X039547D02*
Y-001890D01*
X040728Y-002441D02*
Y-001890D01*
X027131Y-012754D02*
Y-012046D01*
X028469Y-012754D02*
Y-012046D01*
X027131Y-012754D02*
X028469D01*
X027131Y-012046D02*
X028469D01*
X027756Y-011398D02*
X028937D01*
X027756Y-010846D02*
X028937D01*
Y-011398D02*
Y-010846D01*
X027756Y-011398D02*
Y-010846D01*
X031614Y-012756D02*
Y-012047D01*
X032953Y-012756D02*
Y-012047D01*
X031614Y-012756D02*
X032953D01*
X031614Y-012047D02*
X032953D01*
X031693Y-011398D02*
X032874D01*
X031693Y-010846D02*
X032874D01*
Y-011398D02*
Y-010846D01*
X031693Y-011398D02*
Y-010846D01*
X023740Y-012756D02*
Y-012047D01*
X025079Y-012756D02*
Y-012047D01*
X023740Y-012756D02*
X025079D01*
X023740Y-012047D02*
X025079D01*
X023819Y-011398D02*
X025000D01*
X023819Y-010846D02*
X025000D01*
Y-011398D02*
Y-010846D01*
X023819Y-011398D02*
Y-010846D01*
X035630Y-011398D02*
X036811D01*
X035630Y-010846D02*
X036811D01*
Y-011398D02*
Y-010846D01*
X035630Y-011398D02*
Y-010846D01*
X039488Y-012756D02*
Y-012047D01*
X040827Y-012756D02*
Y-012047D01*
X039488Y-012756D02*
X040827D01*
X039488Y-012047D02*
X040827D01*
X039567Y-011398D02*
X040748D01*
X039567Y-010846D02*
X040748D01*
Y-011398D02*
Y-010846D01*
X039567Y-011398D02*
Y-010846D01*
X039531Y-010954D02*
Y-010246D01*
X040869Y-010954D02*
Y-010246D01*
X039531D02*
X040869D01*
X039531Y-010954D02*
X040869D01*
X035531D02*
Y-010246D01*
X036869Y-010954D02*
Y-010246D01*
X035531D02*
X036869D01*
X035531Y-010954D02*
X036869D01*
X031631D02*
Y-010246D01*
X032969Y-010954D02*
Y-010246D01*
X031631D02*
X032969D01*
X031631Y-010954D02*
X032969D01*
X027731D02*
Y-010246D01*
X029069Y-010954D02*
Y-010246D01*
X027731D02*
X029069D01*
X027731Y-010954D02*
X029069D01*
X023731D02*
Y-010246D01*
X025069Y-010954D02*
Y-010246D01*
X023731D02*
X025069D01*
X023731Y-010954D02*
X025069D01*
X039531Y-006954D02*
Y-006246D01*
X040869Y-006954D02*
Y-006246D01*
X039531D02*
X040869D01*
X039531Y-006954D02*
X040869D01*
X035531D02*
Y-006246D01*
X036869Y-006954D02*
Y-006246D01*
X035531D02*
X036869D01*
X035531Y-006954D02*
X036869D01*
X031631D02*
Y-006246D01*
X032969Y-006954D02*
Y-006246D01*
X031631D02*
X032969D01*
X031631Y-006954D02*
X032969D01*
X027731D02*
Y-006246D01*
X029069Y-006954D02*
Y-006246D01*
X027731D02*
X029069D01*
X027731Y-006954D02*
X029069D01*
X023731D02*
Y-006246D01*
X025069Y-006954D02*
Y-006246D01*
X023731D02*
X025069D01*
X023731Y-006954D02*
X025069D01*
X005231Y-017446D02*
X006569D01*
X005231Y-018154D02*
X006569D01*
X005231D02*
Y-017446D01*
X006569Y-018154D02*
Y-017446D01*
Y-011254D02*
Y-010546D01*
X005231Y-011254D02*
Y-010546D01*
Y-011254D02*
X006569D01*
X005231Y-010546D02*
X006569D01*
Y-004354D02*
Y-003646D01*
X005231Y-004354D02*
Y-003646D01*
Y-004354D02*
X006569D01*
X005231Y-003646D02*
X006569D01*
M02*
